<svg width="1679" height="348" viewBox="0 0 1679 348" fill="none" xmlns="http://www.w3.org/2000/svg">
<rect width="1679" height="348" fill="#262626"/>
<path d="M639.557 100.735C641.222 96.4551 644.165 92.7176 647.858 90C647.533 91.7025 647.208 93.4226 647.223 95.1601C647.495 98.5177 649.163 101.585 651.233 104.178C653.125 106.663 655.438 108.795 657.29 111.31C658.853 113.493 659.993 115.998 660.498 118.641C661.658 123.191 660.73 127.918 659.753 132.408C659.565 133.231 659.938 134.084 660.57 134.611C661.153 134.856 661.708 134.446 662.138 134.091C664.473 132.173 665.593 129.221 666.348 126.383C667.178 122.993 667.723 119.456 667.206 115.976C668.351 116.906 669.221 118.128 670.046 119.341C672.283 122.996 674.251 127.051 674.233 131.433C674.363 132.591 674.396 133.753 674.233 134.911C674.226 138.379 673.213 141.826 671.298 144.721C670.098 146.629 668.636 148.424 666.721 149.654C664.258 151.194 661.56 152.431 658.683 152.931C659.723 151.714 660.173 150.156 660.59 148.646C660.843 147.146 661.388 145.691 661.47 144.169C661.36 144.064 661.145 143.856 661.038 143.751C660.355 144.399 659.85 145.239 659.03 145.729C657.208 146.994 654.465 146.546 653.105 144.804C651.123 142.459 651.48 139.219 651.085 136.379C650.92 133.653 651.003 130.918 650.955 128.188C650.793 128.181 650.473 128.166 650.31 128.161C648.625 130.143 647.178 132.318 645.878 134.574C644.615 136.671 643.362 138.779 642.352 141.014C641.31 143.146 640.687 145.556 641.01 147.936C641.242 149.174 641.625 150.386 642.277 151.469C639.542 150.376 637.457 148.229 635.265 146.346C634.75 145.884 633.687 145.416 633.275 146.231C632.302 148.896 632.255 152.021 633.495 154.609C630.247 154.574 627.135 153.061 624.905 150.734C622.185 147.989 620.289 144.434 619.452 140.666C619.087 139.104 619.209 137.489 619.237 135.901C619.639 133.103 620.884 130.486 622.52 128.201C624.49 125.226 626.915 122.488 628.155 119.091C629.117 116.598 629.257 113.801 628.685 111.203C630.767 112.146 632.63 113.776 633.427 115.963C634.67 119.228 634.05 122.776 634.257 126.178C634.477 127.098 634.61 128.141 635.287 128.858C636.472 129.746 638.147 129.436 639.367 128.773C640.92 127.856 641.512 126.038 641.97 124.403C642.29 122.948 642.707 121.423 642.3 119.943C641.79 116.346 639.897 113.156 639.077 109.643C638.457 106.71 638.412 103.55 639.557 100.735Z" fill="#D65210"/>
<path d="M611.257 155.405C612.391 155.204 613.541 155.294 614.682 155.284C617.686 155.274 620.69 155.279 623.692 155.276C627.516 155.51 631.356 155.352 635.188 155.397C645.861 155.397 656.534 155.397 667.21 155.397C671.795 155.171 676.392 155.342 680.985 155.276C682.043 155.269 683.108 155.224 684.156 155.415C684.434 155.683 684.709 155.96 684.982 156.239C684.982 156.422 684.982 156.787 684.984 156.97C694.985 156.832 704.99 156.942 714.993 156.902C716.118 156.724 716.994 157.852 716.999 158.895C716.994 162.591 717.009 166.288 716.991 169.984C716.981 171.238 715.856 172.039 714.695 172.115C711.043 172.163 707.359 171.946 703.732 172.436C700.96 172.54 698.219 173.065 695.502 173.6C691.588 174.585 687.663 175.698 684.076 177.59C680.832 179.168 677.873 181.344 675.422 183.998C673.11 186.868 671.099 190.139 670.501 193.841C669.756 197.065 670.679 200.485 672.3 203.299C674.238 206.727 677.52 209.058 680.734 211.174C682.956 212.617 685.482 213.461 688.016 214.154C689.039 214.398 690.024 214.948 690.487 215.941C690.47 218.884 690.51 221.829 690.467 224.771C690.345 225.842 689.159 226.156 688.253 226.163C686.41 226.078 684.566 226.128 682.723 226.158C678.128 225.945 673.528 226.43 668.933 226.206C667.22 226.078 665.629 225.399 664.108 224.638C661.894 223.507 659.396 223.133 656.944 222.952C655.023 222.587 653.057 222.849 651.124 222.62C645.543 222.532 639.95 222.675 634.435 223.567C633.344 223.814 632.229 224.017 631.226 224.532C629.425 225.424 627.506 226.239 625.463 226.239C621.871 226.299 618.279 226.206 614.687 226.226C612.528 225.932 610.357 226.264 608.191 226.193C606.905 226.161 605.339 226.359 604.431 225.233C604.341 222.394 604.424 219.552 604.371 216.712C604.399 216.185 604.261 215.549 604.689 215.144C605.574 214.144 607.028 214.197 608.188 213.73C610.287 213.169 612.213 212.159 614.084 211.074C617.476 209.252 620.885 206.968 622.761 203.48C624.537 200.547 625.045 196.793 623.719 193.587C622.984 191.594 621.523 189.916 619.749 188.78C617.478 187.446 614.797 186.951 612.188 187.049C610.722 186.762 610.084 185.154 610.167 183.794C608.824 183.857 607.51 183.505 606.17 183.526C601.31 183.126 596.657 181.561 592.017 180.158C587.943 178.859 583.978 177.206 580.198 175.201C577.222 173.291 574.183 171.446 571.474 169.157C569.553 167.579 567.537 166.099 565.778 164.333C564.635 163.152 565.105 161.383 565.05 159.913C564.96 159.144 565.661 158.458 566.414 158.513C576.086 158.556 585.759 158.548 595.429 158.561C600.344 158.804 605.267 158.591 610.184 158.739C610.084 157.54 610.077 156.088 611.257 155.405ZM614.914 159.913C614.669 160.284 614.387 160.679 614.449 161.154C614.449 164.853 614.427 168.552 614.459 172.251C614.579 173.251 614.472 174.329 614.997 175.233C615.255 175.655 615.727 175.276 615.907 174.982C615.955 173.469 616.208 171.972 616.213 170.456C616.415 168.717 616.375 166.946 616.798 165.24C617.153 163.89 618.221 162.564 619.684 162.438C621.43 162.378 623.184 162.187 624.93 162.363C630.107 162.425 635.288 162.413 640.468 162.473C641.388 162.456 642.291 162.702 643.212 162.639C649.385 162.644 655.556 162.682 661.729 162.664C664.321 162.641 666.917 162.724 669.508 162.566C671.49 162.33 673.488 162.493 675.479 162.445C677.2 162.38 678.966 162.609 680.637 162.084C680.922 161.405 680.682 160.599 680.722 159.872C672.385 159.857 664.048 159.875 655.709 159.865C642.111 159.91 628.512 159.789 614.914 159.913ZM571.111 162.981C571.196 163.084 571.364 163.287 571.449 163.388C572.837 163.599 574.158 164.109 575.548 164.297C578.65 164.853 581.772 165.305 584.903 165.614C588.838 165.853 592.773 166.092 596.695 166.458C599.454 166.458 602.208 166.642 604.964 166.735C605.339 166.74 605.77 166.933 606.105 166.672C606.542 166.102 606.43 165.35 606.445 164.682C606.48 164.235 606.34 163.714 605.925 163.488C604.611 163.154 603.258 163.554 601.94 163.265C595.679 163.159 589.416 163.177 583.155 163.159C579.143 162.961 575.121 163.214 571.111 162.981ZM641.271 205.465C636.493 206.681 632.129 209.096 628.006 211.75C625.963 213.024 623.842 214.295 621.443 214.737C619.792 215.039 618.109 215.19 616.43 215.227C614.874 215.421 613.319 215.657 611.75 215.732C611.475 215.933 611.493 216.207 611.655 216.474C612.661 216.263 613.681 216.331 614.692 216.454C619.004 216.451 623.319 216.474 627.629 216.471C629.29 213.986 631.038 211.378 633.699 209.875C637.902 207.538 642.599 205.804 647.462 205.905C648.88 205.955 650.286 205.741 651.696 205.626C651.169 204.937 650.176 205.143 649.423 204.957C646.701 204.829 643.932 204.787 641.271 205.465ZM665.917 213.001C665.954 213.549 666.544 213.725 666.927 214.001C668.18 214.732 669.263 215.73 670.501 216.479C674.319 216.451 678.153 216.464 681.975 216.429C681.978 216.31 681.983 216.074 681.985 215.956C680.397 215.974 678.808 215.976 677.238 215.727C674.771 215.743 672.35 215.19 669.994 214.511C669.021 214.217 668.023 213.979 667.112 213.519C666.704 213.36 666.309 213.179 665.917 213.001Z" fill="#FBFBFB"/>
<path d="M740.75 167V117.8H754.775C758.475 117.8 761.7 118.275 764.45 119.225C767.2 120.125 769.35 121.625 770.9 123.725C772.45 125.825 773.225 128.675 773.225 132.275C773.225 135.725 772.45 138.575 770.9 140.825C769.4 143.025 767.275 144.7 764.525 145.85C761.825 146.95 758.675 147.5 755.075 147.5H746.975V167H740.75ZM746.975 142.4H754.325C758.625 142.4 761.8 141.575 763.85 139.925C765.95 138.275 767 135.725 767 132.275C767 128.725 765.9 126.275 763.7 124.925C761.55 123.525 758.325 122.825 754.025 122.825H746.975V142.4ZM783.23 167V117.8H797.255C800.955 117.8 804.18 118.275 806.93 119.225C809.68 120.125 811.83 121.625 813.38 123.725C814.93 125.825 815.705 128.675 815.705 132.275C815.705 135.725 814.93 138.575 813.38 140.825C811.88 143.025 809.755 144.7 807.005 145.85C804.305 146.95 801.155 147.5 797.555 147.5H789.455V167H783.23ZM789.455 142.4H796.805C801.105 142.4 804.28 141.575 806.33 139.925C808.43 138.275 809.48 135.725 809.48 132.275C809.48 128.725 808.38 126.275 806.18 124.925C804.03 123.525 800.805 122.825 796.505 122.825H789.455V142.4ZM825.711 167V117.8H831.936V161.675H853.461V167H825.711ZM862.186 167V117.8H890.536V123.05H868.411V139.7H887.161V144.95H868.411V167H862.186ZM911.796 167.9C908.846 167.9 906.071 167.15 903.471 165.65C900.921 164.15 898.846 161.975 897.246 159.125C895.696 156.275 894.921 152.85 894.921 148.85C894.921 144.75 895.696 141.275 897.246 138.425C898.846 135.575 900.921 133.4 903.471 131.9C906.071 130.4 908.846 129.65 911.796 129.65C914.796 129.65 917.571 130.4 920.121 131.9C922.671 133.4 924.721 135.575 926.271 138.425C927.871 141.275 928.671 144.75 928.671 148.85C928.671 152.85 927.871 156.275 926.271 159.125C924.721 161.975 922.671 164.15 920.121 165.65C917.571 167.15 914.796 167.9 911.796 167.9ZM911.796 162.8C913.896 162.8 915.746 162.225 917.346 161.075C918.946 159.875 920.171 158.225 921.021 156.125C921.871 154.025 922.296 151.6 922.296 148.85C922.296 146.05 921.871 143.6 921.021 141.5C920.171 139.35 918.946 137.7 917.346 136.55C915.746 135.35 913.896 134.75 911.796 134.75C909.696 134.75 907.846 135.35 906.246 136.55C904.696 137.7 903.471 139.35 902.571 141.5C901.721 143.6 901.296 146.05 901.296 148.85C901.296 151.6 901.721 154.025 902.571 156.125C903.471 158.225 904.696 159.875 906.246 161.075C907.846 162.225 909.696 162.8 911.796 162.8ZM938.27 167V130.55H943.37L943.895 137.15H944.12C945.32 134.85 946.82 133.025 948.62 131.675C950.42 130.325 952.37 129.65 954.47 129.65C955.27 129.65 955.97 129.7 956.57 129.8C957.17 129.9 957.77 130.1 958.37 130.4L957.02 135.65C956.47 135.5 955.945 135.4 955.445 135.35C954.995 135.25 954.395 135.2 953.645 135.2C952.095 135.2 950.47 135.825 948.77 137.075C947.12 138.325 945.67 140.5 944.42 143.6V167H938.27ZM975.839 183.8C972.889 183.8 970.264 183.4 967.964 182.6C965.714 181.85 963.939 180.75 962.639 179.3C961.389 177.85 960.764 176.075 960.764 173.975C960.764 172.425 961.239 170.925 962.189 169.475C963.139 168.075 964.439 166.825 966.089 165.725V165.425C965.189 164.825 964.414 164.05 963.764 163.1C963.164 162.1 962.864 160.9 962.864 159.5C962.864 157.95 963.289 156.6 964.139 155.45C965.039 154.3 965.939 153.4 966.839 152.75V152.45C965.689 151.45 964.614 150.1 963.614 148.4C962.614 146.7 962.114 144.775 962.114 142.625C962.114 139.975 962.739 137.675 963.989 135.725C965.289 133.775 966.964 132.275 969.014 131.225C971.114 130.175 973.389 129.65 975.839 129.65C976.839 129.65 977.789 129.75 978.689 129.95C979.589 130.1 980.364 130.3 981.014 130.55H993.689V135.275H986.114V135.575C987.014 136.375 987.739 137.375 988.289 138.575C988.889 139.775 989.189 141.2 989.189 142.85C989.189 145.45 988.589 147.7 987.389 149.6C986.189 151.45 984.589 152.9 982.589 153.95C980.589 154.95 978.339 155.45 975.839 155.45C974.939 155.45 974.014 155.35 973.064 155.15C972.114 154.9 971.214 154.575 970.364 154.175C969.764 154.725 969.214 155.325 968.714 155.975C968.264 156.625 968.039 157.475 968.039 158.525C968.039 159.675 968.489 160.625 969.389 161.375C970.339 162.125 972.039 162.5 974.489 162.5H981.539C985.789 162.5 988.964 163.2 991.064 164.6C993.214 165.95 994.289 168.15 994.289 171.2C994.289 173.45 993.539 175.525 992.039 177.425C990.539 179.325 988.389 180.85 985.589 182C982.839 183.2 979.589 183.8 975.839 183.8ZM975.839 151.325C977.239 151.325 978.514 150.975 979.664 150.275C980.864 149.525 981.814 148.5 982.514 147.2C983.214 145.9 983.564 144.375 983.564 142.625C983.564 139.925 982.814 137.85 981.314 136.4C979.814 134.9 977.989 134.15 975.839 134.15C973.689 134.15 971.864 134.9 970.364 136.4C968.864 137.85 968.114 139.925 968.114 142.625C968.114 144.375 968.464 145.9 969.164 147.2C969.864 148.5 970.789 149.525 971.939 150.275C973.139 150.975 974.439 151.325 975.839 151.325ZM976.739 179.525C979.039 179.525 981.039 179.175 982.739 178.475C984.489 177.775 985.839 176.85 986.789 175.7C987.789 174.55 988.289 173.35 988.289 172.1C988.289 170.4 987.639 169.225 986.339 168.575C985.089 167.925 983.289 167.6 980.939 167.6H974.639C973.939 167.6 973.164 167.55 972.314 167.45C971.514 167.35 970.714 167.2 969.914 167C968.564 167.95 967.589 168.95 966.989 170C966.439 171.05 966.164 172.1 966.164 173.15C966.164 175.1 967.089 176.65 968.939 177.8C970.839 178.95 973.439 179.525 976.739 179.525ZM1015.08 167.9C1011.83 167.9 1008.86 167.15 1006.16 165.65C1003.51 164.1 1001.41 161.925 999.856 159.125C998.306 156.275 997.531 152.825 997.531 148.775C997.531 144.825 998.331 141.425 999.931 138.575C1001.53 135.725 1003.58 133.525 1006.08 131.975C1008.58 130.425 1011.23 129.65 1014.03 129.65C1017.13 129.65 1019.76 130.375 1021.91 131.825C1024.11 133.225 1025.76 135.2 1026.86 137.75C1027.96 140.3 1028.51 143.3 1028.51 146.75C1028.51 147.4 1028.48 148.025 1028.43 148.625C1028.43 149.225 1028.36 149.825 1028.21 150.425H1001.96V145.55H1022.96C1022.96 142.05 1022.18 139.375 1020.63 137.525C1019.13 135.625 1016.96 134.675 1014.11 134.675C1012.46 134.675 1010.83 135.15 1009.23 136.1C1007.63 137 1006.31 138.475 1005.26 140.525C1004.26 142.575 1003.76 145.3 1003.76 148.7C1003.76 151.8 1004.28 154.4 1005.33 156.5C1006.43 158.6 1007.91 160.2 1009.76 161.3C1011.61 162.35 1013.63 162.875 1015.83 162.875C1017.58 162.875 1019.21 162.625 1020.71 162.125C1022.26 161.625 1023.66 160.95 1024.91 160.1L1027.16 164.15C1025.56 165.25 1023.76 166.15 1021.76 166.85C1019.81 167.55 1017.58 167.9 1015.08 167.9Z" fill="#FBFBFB"/>
<path d="M737.87 224V195.792H754.124V198.802H741.439V207.66H752.146V210.713H741.439V220.947H754.554V224H737.87ZM760.202 224V203.102H763.126L763.427 206.112H763.556C764.559 205.109 765.62 204.277 766.738 203.618C767.856 202.93 769.131 202.586 770.565 202.586C772.772 202.586 774.377 203.288 775.381 204.693C776.413 206.069 776.929 208.09 776.929 210.756V224H773.403V211.229C773.403 209.251 773.087 207.832 772.457 206.972C771.855 206.083 770.851 205.639 769.447 205.639C768.386 205.639 767.426 205.911 766.566 206.456C765.734 207.001 764.788 207.803 763.728 208.864V224H760.202ZM783.717 224V193.384H787.243V201.726L787.114 206.026C788.118 205.08 789.164 204.277 790.253 203.618C791.371 202.93 792.647 202.586 794.08 202.586C796.288 202.586 797.893 203.288 798.896 204.693C799.928 206.069 800.444 208.09 800.444 210.756V224H796.918V211.229C796.918 209.251 796.603 207.832 795.972 206.972C795.37 206.083 794.367 205.639 792.962 205.639C791.902 205.639 790.941 205.911 790.081 206.456C789.25 207.001 788.304 207.803 787.243 208.864V224H783.717ZM811.923 224.516C810.776 224.516 809.73 224.287 808.784 223.828C807.867 223.341 807.136 222.667 806.591 221.807C806.046 220.918 805.774 219.843 805.774 218.582C805.774 216.231 806.806 214.454 808.87 213.25C810.934 212.046 814.202 211.2 818.674 210.713C818.645 209.853 818.502 209.022 818.244 208.219C818.015 207.416 817.585 206.771 816.954 206.284C816.323 205.797 815.449 205.553 814.331 205.553C813.127 205.553 811.995 205.782 810.934 206.241C809.873 206.671 808.927 207.158 808.096 207.703L806.72 205.295C807.351 204.865 808.096 204.449 808.956 204.048C809.816 203.618 810.748 203.274 811.751 203.016C812.754 202.729 813.815 202.586 814.933 202.586C816.624 202.586 818 202.944 819.061 203.661C820.15 204.349 820.939 205.338 821.426 206.628C821.942 207.918 822.2 209.437 822.2 211.186V224H819.276L818.975 221.506H818.846C817.843 222.337 816.768 223.054 815.621 223.656C814.474 224.229 813.242 224.516 811.923 224.516ZM812.912 221.592C813.944 221.592 814.904 221.363 815.793 220.904C816.71 220.445 817.671 219.772 818.674 218.883V213.25C816.323 213.537 814.46 213.909 813.084 214.368C811.737 214.798 810.762 215.343 810.16 216.002C809.558 216.661 809.257 217.45 809.257 218.367C809.257 219.514 809.615 220.345 810.332 220.861C811.049 221.348 811.909 221.592 812.912 221.592ZM828.775 224V203.102H831.699L832 206.112H832.129C833.132 205.109 834.193 204.277 835.311 203.618C836.429 202.93 837.705 202.586 839.138 202.586C841.345 202.586 842.951 203.288 843.954 204.693C844.986 206.069 845.502 208.09 845.502 210.756V224H841.976V211.229C841.976 209.251 841.661 207.832 841.03 206.972C840.428 206.083 839.425 205.639 838.02 205.639C836.959 205.639 835.999 205.911 835.139 206.456C834.308 207.001 833.362 207.803 832.301 208.864V224H828.775ZM860.59 224.516C858.726 224.516 857.049 224.086 855.559 223.226C854.068 222.366 852.893 221.119 852.033 219.485C851.173 217.851 850.743 215.887 850.743 213.594C850.743 211.243 851.201 209.251 852.119 207.617C853.065 205.983 854.297 204.736 855.817 203.876C857.365 203.016 859.027 202.586 860.805 202.586C862.181 202.586 863.356 202.815 864.331 203.274C865.334 203.733 866.194 204.32 866.911 205.037L865.148 207.23C864.632 206.714 864.015 206.313 863.299 206.026C862.611 205.711 861.822 205.553 860.934 205.553C859.701 205.553 858.583 205.897 857.58 206.585C856.605 207.244 855.831 208.176 855.258 209.38C854.684 210.584 854.398 211.989 854.398 213.594C854.398 215.171 854.67 216.561 855.215 217.765C855.759 218.969 856.519 219.915 857.494 220.603C858.468 221.262 859.601 221.592 860.891 221.592C861.865 221.592 862.768 221.406 863.6 221.033C864.431 220.66 865.148 220.187 865.75 219.614L867.298 221.764C866.409 222.595 865.406 223.269 864.288 223.785C863.17 224.272 861.937 224.516 860.59 224.516ZM879.49 224.516C877.627 224.516 875.921 224.086 874.373 223.226C872.854 222.337 871.65 221.09 870.761 219.485C869.872 217.851 869.428 215.873 869.428 213.551C869.428 211.286 869.887 209.337 870.804 207.703C871.721 206.069 872.897 204.808 874.33 203.919C875.763 203.03 877.283 202.586 878.888 202.586C880.665 202.586 882.17 203.002 883.403 203.833C884.664 204.636 885.61 205.768 886.241 207.23C886.872 208.692 887.187 210.412 887.187 212.39C887.187 212.763 887.173 213.121 887.144 213.465C887.144 213.809 887.101 214.153 887.015 214.497H871.965V211.702H884.005C884.005 209.695 883.561 208.162 882.672 207.101C881.812 206.012 880.565 205.467 878.931 205.467C877.985 205.467 877.053 205.739 876.136 206.284C875.219 206.8 874.459 207.646 873.857 208.821C873.284 209.996 872.997 211.559 872.997 213.508C872.997 215.285 873.298 216.776 873.9 217.98C874.531 219.184 875.376 220.101 876.437 220.732C877.498 221.334 878.659 221.635 879.92 221.635C880.923 221.635 881.855 221.492 882.715 221.205C883.604 220.918 884.406 220.531 885.123 220.044L886.413 222.366C885.496 222.997 884.464 223.513 883.317 223.914C882.199 224.315 880.923 224.516 879.49 224.516ZM901.304 224V195.792H904.873V207.617H918.031V195.792H921.6V224H918.031V210.713H904.873V224H901.304ZM929.354 224V195.792H937.395C939.517 195.792 941.366 196.064 942.942 196.609C944.519 197.125 945.752 197.985 946.64 199.189C947.529 200.393 947.973 202.027 947.973 204.091C947.973 206.069 947.529 207.703 946.64 208.993C945.78 210.254 944.562 211.215 942.985 211.874C941.437 212.505 939.631 212.82 937.567 212.82H932.923V224H929.354ZM932.923 209.896H937.137C939.603 209.896 941.423 209.423 942.598 208.477C943.802 207.531 944.404 206.069 944.404 204.091C944.404 202.056 943.774 200.651 942.512 199.877C941.28 199.074 939.431 198.673 936.965 198.673H932.923V209.896ZM953.71 224V195.792H961.751C963.872 195.792 965.721 196.064 967.298 196.609C968.875 197.125 970.107 197.985 970.996 199.189C971.885 200.393 972.329 202.027 972.329 204.091C972.329 206.069 971.885 207.703 970.996 208.993C970.136 210.254 968.918 211.215 967.341 211.874C965.793 212.505 963.987 212.82 961.923 212.82H957.279V224H953.71ZM957.279 209.896H961.493C963.958 209.896 965.779 209.423 966.954 208.477C968.158 207.531 968.76 206.069 968.76 204.091C968.76 202.056 968.129 200.651 966.868 199.877C965.635 199.074 963.786 198.673 961.321 198.673H957.279V209.896ZM986.674 224V195.792H990.243V220.947H1002.58V224H986.674ZM1012.06 224.516C1010.91 224.516 1009.86 224.287 1008.92 223.828C1008 223.341 1007.27 222.667 1006.73 221.807C1006.18 220.918 1005.91 219.843 1005.91 218.582C1005.91 216.231 1006.94 214.454 1009 213.25C1011.07 212.046 1014.34 211.2 1018.81 210.713C1018.78 209.853 1018.64 209.022 1018.38 208.219C1018.15 207.416 1017.72 206.771 1017.09 206.284C1016.46 205.797 1015.58 205.553 1014.47 205.553C1013.26 205.553 1012.13 205.782 1011.07 206.241C1010.01 206.671 1009.06 207.158 1008.23 207.703L1006.85 205.295C1007.49 204.865 1008.23 204.449 1009.09 204.048C1009.95 203.618 1010.88 203.274 1011.89 203.016C1012.89 202.729 1013.95 202.586 1015.07 202.586C1016.76 202.586 1018.14 202.944 1019.2 203.661C1020.29 204.349 1021.07 205.338 1021.56 206.628C1022.08 207.918 1022.33 209.437 1022.33 211.186V224H1019.41L1019.11 221.506H1018.98C1017.98 222.337 1016.9 223.054 1015.76 223.656C1014.61 224.229 1013.38 224.516 1012.06 224.516ZM1013.05 221.592C1014.08 221.592 1015.04 221.363 1015.93 220.904C1016.85 220.445 1017.81 219.772 1018.81 218.883V213.25C1016.46 213.537 1014.59 213.909 1013.22 214.368C1011.87 214.798 1010.9 215.343 1010.29 216.002C1009.69 216.661 1009.39 217.45 1009.39 218.367C1009.39 219.514 1009.75 220.345 1010.47 220.861C1011.18 221.348 1012.04 221.592 1013.05 221.592ZM1028.91 224V203.102H1031.83L1032.13 206.112H1032.26C1033.27 205.109 1034.33 204.277 1035.45 203.618C1036.56 202.93 1037.84 202.586 1039.27 202.586C1041.48 202.586 1043.09 203.288 1044.09 204.693C1045.12 206.069 1045.64 208.09 1045.64 210.756V224H1042.11V211.229C1042.11 209.251 1041.8 207.832 1041.16 206.972C1040.56 206.083 1039.56 205.639 1038.15 205.639C1037.09 205.639 1036.13 205.911 1035.27 206.456C1034.44 207.001 1033.5 207.803 1032.44 208.864V224H1028.91ZM1059.48 233.632C1057.79 233.632 1056.28 233.403 1054.96 232.944C1053.67 232.514 1052.65 231.883 1051.91 231.052C1051.19 230.221 1050.83 229.203 1050.83 227.999C1050.83 227.11 1051.11 226.25 1051.65 225.419C1052.2 224.616 1052.94 223.9 1053.89 223.269V223.097C1053.37 222.753 1052.93 222.309 1052.55 221.764C1052.21 221.191 1052.04 220.503 1052.04 219.7C1052.04 218.811 1052.28 218.037 1052.77 217.378C1053.29 216.719 1053.8 216.203 1054.32 215.83V215.658C1053.66 215.085 1053.04 214.311 1052.47 213.336C1051.9 212.361 1051.61 211.258 1051.61 210.025C1051.61 208.506 1051.97 207.187 1052.68 206.069C1053.43 204.951 1054.39 204.091 1055.56 203.489C1056.77 202.887 1058.07 202.586 1059.48 202.586C1060.05 202.586 1060.6 202.643 1061.11 202.758C1061.63 202.844 1062.07 202.959 1062.44 203.102H1069.71V205.811H1065.37V205.983C1065.88 206.442 1066.3 207.015 1066.62 207.703C1066.96 208.391 1067.13 209.208 1067.13 210.154C1067.13 211.645 1066.79 212.935 1066.1 214.024C1065.41 215.085 1064.49 215.916 1063.35 216.518C1062.2 217.091 1060.91 217.378 1059.48 217.378C1058.96 217.378 1058.43 217.321 1057.89 217.206C1057.34 217.063 1056.83 216.876 1056.34 216.647C1055.99 216.962 1055.68 217.306 1055.39 217.679C1055.13 218.052 1055.01 218.539 1055.01 219.141C1055.01 219.8 1055.26 220.345 1055.78 220.775C1056.32 221.205 1057.3 221.42 1058.7 221.42H1062.75C1065.18 221.42 1067 221.821 1068.21 222.624C1069.44 223.398 1070.06 224.659 1070.06 226.408C1070.06 227.698 1069.63 228.888 1068.77 229.977C1067.91 231.066 1066.67 231.941 1065.07 232.6C1063.49 233.288 1061.63 233.632 1059.48 233.632ZM1059.48 215.013C1060.28 215.013 1061.01 214.812 1061.67 214.411C1062.36 213.981 1062.9 213.393 1063.3 212.648C1063.71 211.903 1063.91 211.028 1063.91 210.025C1063.91 208.477 1063.48 207.287 1062.62 206.456C1061.76 205.596 1060.71 205.166 1059.48 205.166C1058.24 205.166 1057.2 205.596 1056.34 206.456C1055.48 207.287 1055.05 208.477 1055.05 210.025C1055.05 211.028 1055.25 211.903 1055.65 212.648C1056.05 213.393 1056.58 213.981 1057.24 214.411C1057.93 214.812 1058.67 215.013 1059.48 215.013ZM1059.99 231.181C1061.31 231.181 1062.46 230.98 1063.43 230.579C1064.44 230.178 1065.21 229.647 1065.76 228.988C1066.33 228.329 1066.62 227.641 1066.62 226.924C1066.62 225.949 1066.24 225.276 1065.5 224.903C1064.78 224.53 1063.75 224.344 1062.4 224.344H1058.79C1058.39 224.344 1057.94 224.315 1057.46 224.258C1057 224.201 1056.54 224.115 1056.08 224C1055.31 224.545 1054.75 225.118 1054.4 225.72C1054.09 226.322 1053.93 226.924 1053.93 227.526C1053.93 228.644 1054.46 229.533 1055.52 230.192C1056.61 230.851 1058.1 231.181 1059.99 231.181ZM1080.2 224.516C1077.99 224.516 1076.37 223.828 1075.34 222.452C1074.34 221.047 1073.84 219.012 1073.84 216.346V203.102H1077.36V215.873C1077.36 217.822 1077.66 219.241 1078.26 220.13C1078.9 220.99 1079.9 221.42 1081.27 221.42C1082.34 221.42 1083.28 221.148 1084.11 220.603C1084.97 220.03 1085.9 219.141 1086.91 217.937V203.102H1090.43V224H1087.51L1087.21 220.732H1087.08C1086.13 221.879 1085.1 222.796 1083.98 223.484C1082.89 224.172 1081.63 224.516 1080.2 224.516ZM1102.3 224.516C1101.15 224.516 1100.11 224.287 1099.16 223.828C1098.24 223.341 1097.51 222.667 1096.97 221.807C1096.42 220.918 1096.15 219.843 1096.15 218.582C1096.15 216.231 1097.18 214.454 1099.25 213.25C1101.31 212.046 1104.58 211.2 1109.05 210.713C1109.02 209.853 1108.88 209.022 1108.62 208.219C1108.39 207.416 1107.96 206.771 1107.33 206.284C1106.7 205.797 1105.83 205.553 1104.71 205.553C1103.5 205.553 1102.37 205.782 1101.31 206.241C1100.25 206.671 1099.3 207.158 1098.47 207.703L1097.1 205.295C1097.73 204.865 1098.47 204.449 1099.33 204.048C1100.19 203.618 1101.12 203.274 1102.13 203.016C1103.13 202.729 1104.19 202.586 1105.31 202.586C1107 202.586 1108.38 202.944 1109.44 203.661C1110.53 204.349 1111.31 205.338 1111.8 206.628C1112.32 207.918 1112.58 209.437 1112.58 211.186V224H1109.65L1109.35 221.506H1109.22C1108.22 222.337 1107.14 223.054 1106 223.656C1104.85 224.229 1103.62 224.516 1102.3 224.516ZM1103.29 221.592C1104.32 221.592 1105.28 221.363 1106.17 220.904C1107.09 220.445 1108.05 219.772 1109.05 218.883V213.25C1106.7 213.537 1104.84 213.909 1103.46 214.368C1102.11 214.798 1101.14 215.343 1100.54 216.002C1099.93 216.661 1099.63 217.45 1099.63 218.367C1099.63 219.514 1099.99 220.345 1100.71 220.861C1101.42 221.348 1102.28 221.592 1103.29 221.592ZM1126.2 233.632C1124.51 233.632 1123.01 233.403 1121.69 232.944C1120.4 232.514 1119.38 231.883 1118.64 231.052C1117.92 230.221 1117.56 229.203 1117.56 227.999C1117.56 227.11 1117.83 226.25 1118.38 225.419C1118.92 224.616 1119.67 223.9 1120.61 223.269V223.097C1120.1 222.753 1119.65 222.309 1119.28 221.764C1118.94 221.191 1118.76 220.503 1118.76 219.7C1118.76 218.811 1119.01 218.037 1119.5 217.378C1120.01 216.719 1120.53 216.203 1121.04 215.83V215.658C1120.38 215.085 1119.77 214.311 1119.19 213.336C1118.62 212.361 1118.33 211.258 1118.33 210.025C1118.33 208.506 1118.69 207.187 1119.41 206.069C1120.15 204.951 1121.11 204.091 1122.29 203.489C1123.49 202.887 1124.8 202.586 1126.2 202.586C1126.78 202.586 1127.32 202.643 1127.84 202.758C1128.35 202.844 1128.8 202.959 1129.17 203.102H1136.44V205.811H1132.09V205.983C1132.61 206.442 1133.03 207.015 1133.34 207.703C1133.69 208.391 1133.86 209.208 1133.86 210.154C1133.86 211.645 1133.51 212.935 1132.83 214.024C1132.14 215.085 1131.22 215.916 1130.07 216.518C1128.93 217.091 1127.64 217.378 1126.2 217.378C1125.69 217.378 1125.16 217.321 1124.61 217.206C1124.07 217.063 1123.55 216.876 1123.06 216.647C1122.72 216.962 1122.4 217.306 1122.12 217.679C1121.86 218.052 1121.73 218.539 1121.73 219.141C1121.73 219.8 1121.99 220.345 1122.51 220.775C1123.05 221.205 1124.02 221.42 1125.43 221.42H1129.47C1131.91 221.42 1133.73 221.821 1134.93 222.624C1136.16 223.398 1136.78 224.659 1136.78 226.408C1136.78 227.698 1136.35 228.888 1135.49 229.977C1134.63 231.066 1133.4 231.941 1131.79 232.6C1130.22 233.288 1128.35 233.632 1126.2 233.632ZM1126.2 215.013C1127.01 215.013 1127.74 214.812 1128.4 214.411C1129.08 213.981 1129.63 213.393 1130.03 212.648C1130.43 211.903 1130.63 211.028 1130.63 210.025C1130.63 208.477 1130.2 207.287 1129.34 206.456C1128.48 205.596 1127.44 205.166 1126.2 205.166C1124.97 205.166 1123.92 205.596 1123.06 206.456C1122.2 207.287 1121.77 208.477 1121.77 210.025C1121.77 211.028 1121.97 211.903 1122.38 212.648C1122.78 213.393 1123.31 213.981 1123.97 214.411C1124.66 214.812 1125.4 215.013 1126.2 215.013ZM1126.72 231.181C1128.04 231.181 1129.18 230.98 1130.16 230.579C1131.16 230.178 1131.94 229.647 1132.48 228.988C1133.05 228.329 1133.34 227.641 1133.34 226.924C1133.34 225.949 1132.97 225.276 1132.22 224.903C1131.51 224.53 1130.47 224.344 1129.13 224.344H1125.52C1125.11 224.344 1124.67 224.315 1124.18 224.258C1123.72 224.201 1123.26 224.115 1122.81 224C1122.03 224.545 1121.47 225.118 1121.13 225.72C1120.81 226.322 1120.66 226.924 1120.66 227.526C1120.66 228.644 1121.19 229.533 1122.25 230.192C1123.34 230.851 1124.83 231.181 1126.72 231.181ZM1148.7 224.516C1146.84 224.516 1145.13 224.086 1143.59 223.226C1142.07 222.337 1140.86 221.09 1139.97 219.485C1139.08 217.851 1138.64 215.873 1138.64 213.551C1138.64 211.286 1139.1 209.337 1140.02 207.703C1140.93 206.069 1142.11 204.808 1143.54 203.919C1144.98 203.03 1146.49 202.586 1148.1 202.586C1149.88 202.586 1151.38 203.002 1152.62 203.833C1153.88 204.636 1154.82 205.768 1155.45 207.23C1156.08 208.692 1156.4 210.412 1156.4 212.39C1156.4 212.763 1156.38 213.121 1156.36 213.465C1156.36 213.809 1156.31 214.153 1156.23 214.497H1141.18V211.702H1153.22C1153.22 209.695 1152.77 208.162 1151.88 207.101C1151.02 206.012 1149.78 205.467 1148.14 205.467C1147.2 205.467 1146.27 205.739 1145.35 206.284C1144.43 206.8 1143.67 207.646 1143.07 208.821C1142.5 209.996 1142.21 211.559 1142.21 213.508C1142.21 215.285 1142.51 216.776 1143.11 217.98C1143.74 219.184 1144.59 220.101 1145.65 220.732C1146.71 221.334 1147.87 221.635 1149.13 221.635C1150.14 221.635 1151.07 221.492 1151.93 221.205C1152.82 220.918 1153.62 220.531 1154.34 220.044L1155.63 222.366C1154.71 222.997 1153.68 223.513 1152.53 223.914C1151.41 224.315 1150.14 224.516 1148.7 224.516Z" fill="#FBFBFB"/>
</svg>
